<mxfile host="Electron" modified="2023-08-16T12:43:54.738Z" agent="Mozilla/5.0 (Windows NT 10.0; Win64; x64) AppleWebKit/537.36 (KHTML, like Gecko) draw.io/21.6.8 Chrome/114.0.5735.289 Electron/25.5.0 Safari/537.36" etag="K7FHoR0yqcxiAVGUMGJb" version="21.6.8" type="device">
  <diagram name="Page-1" id="wcXaeUO8CgQ-c7C6Lvoo">
    <mxGraphModel dx="989" dy="577" grid="1" gridSize="10" guides="1" tooltips="1" connect="1" arrows="1" fold="1" page="1" pageScale="1" pageWidth="850" pageHeight="1100" math="0" shadow="0">
      <root>
        <mxCell id="0" />
        <mxCell id="1" parent="0" />
        <mxCell id="fGIAoD0L26om3MaPcWSA-32" value="" style="ellipse;whiteSpace=wrap;html=1;fillColor=#f8cecc;gradientColor=#ea6b66;strokeColor=#b85450;" parent="1" vertex="1">
          <mxGeometry x="950" y="270" width="260" height="100" as="geometry" />
        </mxCell>
        <mxCell id="fGIAoD0L26om3MaPcWSA-31" value="" style="ellipse;whiteSpace=wrap;html=1;fillColor=#d5e8d4;gradientColor=#97d077;strokeColor=#82b366;" parent="1" vertex="1">
          <mxGeometry x="690" y="270" width="260" height="100" as="geometry" />
        </mxCell>
        <mxCell id="fGIAoD0L26om3MaPcWSA-30" value="" style="ellipse;whiteSpace=wrap;html=1;fillColor=#dae8fc;gradientColor=#7ea6e0;strokeColor=#6c8ebf;" parent="1" vertex="1">
          <mxGeometry x="440" y="270" width="260" height="100" as="geometry" />
        </mxCell>
        <mxCell id="fGIAoD0L26om3MaPcWSA-1" value="&lt;font style=&quot;font-size: 18px;&quot;&gt;R4&lt;/font&gt;" style="shape=mxgraph.cisco.routers.router;sketch=0;html=1;pointerEvents=1;dashed=0;fillColor=#036897;strokeColor=#ffffff;strokeWidth=2;verticalLabelPosition=bottom;verticalAlign=top;align=center;outlineConnect=0;" parent="1" vertex="1">
          <mxGeometry x="1160" y="293.5" width="78" height="53" as="geometry" />
        </mxCell>
        <mxCell id="fGIAoD0L26om3MaPcWSA-3" value="&lt;font style=&quot;font-size: 18px;&quot;&gt;R3&lt;/font&gt;" style="shape=mxgraph.cisco.routers.router;sketch=0;html=1;pointerEvents=1;dashed=0;fillColor=#036897;strokeColor=#ffffff;strokeWidth=2;verticalLabelPosition=bottom;verticalAlign=top;align=center;outlineConnect=0;" parent="1" vertex="1">
          <mxGeometry x="910" y="293.5" width="78" height="53" as="geometry" />
        </mxCell>
        <mxCell id="fGIAoD0L26om3MaPcWSA-4" value="&lt;font style=&quot;font-size: 18px;&quot;&gt;R1&lt;/font&gt;" style="shape=mxgraph.cisco.routers.router;sketch=0;html=1;pointerEvents=1;dashed=0;fillColor=#036897;strokeColor=#ffffff;strokeWidth=2;verticalLabelPosition=bottom;verticalAlign=top;align=center;outlineConnect=0;" parent="1" vertex="1">
          <mxGeometry x="410" y="293.5" width="78" height="53" as="geometry" />
        </mxCell>
        <mxCell id="fGIAoD0L26om3MaPcWSA-5" value="&lt;font style=&quot;font-size: 18px;&quot;&gt;R2&lt;/font&gt;" style="shape=mxgraph.cisco.routers.router;sketch=0;html=1;pointerEvents=1;dashed=0;fillColor=#036897;strokeColor=#ffffff;strokeWidth=2;verticalLabelPosition=bottom;verticalAlign=top;align=center;outlineConnect=0;" parent="1" vertex="1">
          <mxGeometry x="660" y="293.5" width="78" height="53" as="geometry" />
        </mxCell>
        <mxCell id="fGIAoD0L26om3MaPcWSA-27" value="" style="endArrow=none;html=1;rounded=0;exitX=1;exitY=0.5;exitDx=0;exitDy=0;exitPerimeter=0;entryX=0;entryY=0.5;entryDx=0;entryDy=0;entryPerimeter=0;" parent="1" source="fGIAoD0L26om3MaPcWSA-4" target="fGIAoD0L26om3MaPcWSA-5" edge="1">
          <mxGeometry width="50" height="50" relative="1" as="geometry">
            <mxPoint x="660" y="483.5" as="sourcePoint" />
            <mxPoint x="710" y="433.5" as="targetPoint" />
          </mxGeometry>
        </mxCell>
        <mxCell id="fGIAoD0L26om3MaPcWSA-28" value="" style="endArrow=none;html=1;rounded=0;entryX=0;entryY=0.5;entryDx=0;entryDy=0;entryPerimeter=0;exitX=1;exitY=0.5;exitDx=0;exitDy=0;exitPerimeter=0;" parent="1" source="fGIAoD0L26om3MaPcWSA-5" target="fGIAoD0L26om3MaPcWSA-3" edge="1">
          <mxGeometry width="50" height="50" relative="1" as="geometry">
            <mxPoint x="750" y="353.5" as="sourcePoint" />
            <mxPoint x="910" y="319.5" as="targetPoint" />
          </mxGeometry>
        </mxCell>
        <mxCell id="fGIAoD0L26om3MaPcWSA-29" value="" style="endArrow=none;html=1;rounded=0;exitX=1;exitY=0.5;exitDx=0;exitDy=0;exitPerimeter=0;entryX=0;entryY=0.5;entryDx=0;entryDy=0;entryPerimeter=0;" parent="1" source="fGIAoD0L26om3MaPcWSA-3" target="fGIAoD0L26om3MaPcWSA-1" edge="1">
          <mxGeometry width="50" height="50" relative="1" as="geometry">
            <mxPoint x="508" y="340.5" as="sourcePoint" />
            <mxPoint x="680" y="340.5" as="targetPoint" />
          </mxGeometry>
        </mxCell>
        <mxCell id="fGIAoD0L26om3MaPcWSA-34" value="&lt;font color=&quot;#000000&quot; style=&quot;font-size: 18px;&quot;&gt;Area 0&lt;/font&gt;" style="text;html=1;align=center;verticalAlign=middle;resizable=0;points=[];autosize=1;strokeColor=none;fillColor=none;" parent="1" vertex="1">
          <mxGeometry x="530" y="273.5" width="80" height="40" as="geometry" />
        </mxCell>
        <mxCell id="fGIAoD0L26om3MaPcWSA-35" value="&lt;font color=&quot;#000000&quot; style=&quot;font-size: 18px;&quot;&gt;Area 1&lt;/font&gt;" style="text;html=1;align=center;verticalAlign=middle;resizable=0;points=[];autosize=1;strokeColor=none;fillColor=none;" parent="1" vertex="1">
          <mxGeometry x="780" y="273.5" width="80" height="40" as="geometry" />
        </mxCell>
        <mxCell id="fGIAoD0L26om3MaPcWSA-36" value="&lt;font color=&quot;#000000&quot; style=&quot;font-size: 18px;&quot;&gt;EIGRP AS 100&lt;/font&gt;" style="text;html=1;align=center;verticalAlign=middle;resizable=0;points=[];autosize=1;strokeColor=none;fillColor=none;" parent="1" vertex="1">
          <mxGeometry x="1010" y="273.5" width="140" height="40" as="geometry" />
        </mxCell>
        <mxCell id="raavGJeO1fDmwe-w99Cc-13" value="DR" style="text;html=1;align=center;verticalAlign=middle;resizable=0;points=[];autosize=1;strokeColor=none;fillColor=none;" vertex="1" parent="1">
          <mxGeometry x="480" y="293.5" width="40" height="30" as="geometry" />
        </mxCell>
        <mxCell id="raavGJeO1fDmwe-w99Cc-14" value="BDR" style="text;html=1;align=center;verticalAlign=middle;resizable=0;points=[];autosize=1;strokeColor=none;fillColor=none;" vertex="1" parent="1">
          <mxGeometry x="620" y="293.5" width="50" height="30" as="geometry" />
        </mxCell>
        <mxCell id="raavGJeO1fDmwe-w99Cc-15" value="BDR" style="text;html=1;align=center;verticalAlign=middle;resizable=0;points=[];autosize=1;strokeColor=none;fillColor=none;" vertex="1" parent="1">
          <mxGeometry x="869" y="293.5" width="50" height="30" as="geometry" />
        </mxCell>
        <mxCell id="raavGJeO1fDmwe-w99Cc-16" value="DR" style="text;html=1;align=center;verticalAlign=middle;resizable=0;points=[];autosize=1;strokeColor=none;fillColor=none;" vertex="1" parent="1">
          <mxGeometry x="730" y="293.5" width="40" height="30" as="geometry" />
        </mxCell>
        <mxCell id="raavGJeO1fDmwe-w99Cc-17" value="ABR" style="text;html=1;align=center;verticalAlign=middle;resizable=0;points=[];autosize=1;strokeColor=none;fillColor=none;" vertex="1" parent="1">
          <mxGeometry x="674" y="263.5" width="50" height="30" as="geometry" />
        </mxCell>
        <mxCell id="raavGJeO1fDmwe-w99Cc-18" value="ASBR" style="text;html=1;align=center;verticalAlign=middle;resizable=0;points=[];autosize=1;strokeColor=none;fillColor=none;" vertex="1" parent="1">
          <mxGeometry x="919" y="263.5" width="60" height="30" as="geometry" />
        </mxCell>
        <mxCell id="raavGJeO1fDmwe-w99Cc-30" value="Type 1" style="shape=flexArrow;endArrow=classic;startArrow=classic;html=1;rounded=0;fillColor=#FFF2CC;strokeColor=#d6b656;gradientColor=#ffd966;labelBackgroundColor=none;" edge="1" parent="1">
          <mxGeometry width="100" height="100" relative="1" as="geometry">
            <mxPoint x="585" y="550" as="sourcePoint" />
            <mxPoint x="805" y="550" as="targetPoint" />
            <mxPoint as="offset" />
          </mxGeometry>
        </mxCell>
        <mxCell id="raavGJeO1fDmwe-w99Cc-31" value="Type 1" style="shape=flexArrow;endArrow=classic;startArrow=classic;html=1;rounded=0;fillColor=#fff2cc;strokeColor=#d6b656;gradientColor=#ffd966;labelBackgroundColor=none;" edge="1" parent="1">
          <mxGeometry width="100" height="100" relative="1" as="geometry">
            <mxPoint x="835" y="550" as="sourcePoint" />
            <mxPoint x="1055" y="550" as="targetPoint" />
          </mxGeometry>
        </mxCell>
        <mxCell id="raavGJeO1fDmwe-w99Cc-32" value="Type 2" style="shape=flexArrow;endArrow=classic;html=1;rounded=0;fillColor=#cce5ff;strokeColor=#A2B5C9;labelBackgroundColor=none;" edge="1" parent="1">
          <mxGeometry width="50" height="50" relative="1" as="geometry">
            <mxPoint x="585" y="585" as="sourcePoint" />
            <mxPoint x="805" y="585" as="targetPoint" />
          </mxGeometry>
        </mxCell>
        <mxCell id="raavGJeO1fDmwe-w99Cc-33" value="Type 2" style="shape=flexArrow;endArrow=classic;html=1;rounded=0;fillColor=#CCE5FF;strokeColor=#A2B5C9;labelBackgroundColor=none;" edge="1" parent="1">
          <mxGeometry width="50" height="50" relative="1" as="geometry">
            <mxPoint x="1055" y="585" as="sourcePoint" />
            <mxPoint x="835" y="585" as="targetPoint" />
          </mxGeometry>
        </mxCell>
        <mxCell id="raavGJeO1fDmwe-w99Cc-36" value="Type 5" style="shape=flexArrow;endArrow=classic;html=1;rounded=0;fillColor=#dae8fc;strokeColor=#6c8ebf;labelBackgroundColor=none;gradientColor=#7ea6e0;" edge="1" parent="1">
          <mxGeometry width="50" height="50" relative="1" as="geometry">
            <mxPoint x="930" y="440" as="sourcePoint" />
            <mxPoint x="460" y="440" as="targetPoint" />
          </mxGeometry>
        </mxCell>
        <mxCell id="raavGJeO1fDmwe-w99Cc-47" value="Type 3" style="shape=flexArrow;endArrow=classic;html=1;rounded=0;fillColor=#d5e8d4;strokeColor=#82b366;labelBackgroundColor=none;gradientColor=#97d077;" edge="1" parent="1">
          <mxGeometry width="50" height="50" relative="1" as="geometry">
            <mxPoint x="800" y="620" as="sourcePoint" />
            <mxPoint x="580" y="620" as="targetPoint" />
          </mxGeometry>
        </mxCell>
        <mxCell id="raavGJeO1fDmwe-w99Cc-48" value="Type 3" style="shape=flexArrow;endArrow=classic;html=1;rounded=0;fillColor=#d5e8d4;strokeColor=#82b366;labelBackgroundColor=none;gradientColor=#97d077;" edge="1" parent="1">
          <mxGeometry width="50" height="50" relative="1" as="geometry">
            <mxPoint x="840" y="620" as="sourcePoint" />
            <mxPoint x="1060" y="620" as="targetPoint" />
          </mxGeometry>
        </mxCell>
        <mxCell id="raavGJeO1fDmwe-w99Cc-51" value="Type 4" style="shape=flexArrow;endArrow=classic;html=1;rounded=0;fillColor=#f8cecc;strokeColor=#b85450;labelBackgroundColor=none;gradientColor=#ea6b66;" edge="1" parent="1">
          <mxGeometry width="50" height="50" relative="1" as="geometry">
            <mxPoint x="1050" y="660" as="sourcePoint" />
            <mxPoint x="580" y="660" as="targetPoint" />
          </mxGeometry>
        </mxCell>
        <mxCell id="raavGJeO1fDmwe-w99Cc-52" value="Type 5" style="shape=flexArrow;endArrow=classic;html=1;rounded=0;fillColor=#dae8fc;strokeColor=#6c8ebf;labelBackgroundColor=none;gradientColor=#7ea6e0;" edge="1" parent="1">
          <mxGeometry width="50" height="50" relative="1" as="geometry">
            <mxPoint x="930" y="400" as="sourcePoint" />
            <mxPoint x="710" y="400" as="targetPoint" />
          </mxGeometry>
        </mxCell>
      </root>
    </mxGraphModel>
  </diagram>
</mxfile>
